# xmcd
#
# Track frame offsets:
#	150
#	13885
#	32876
#	56257
#	74948
#	113396
#	131380
#	164874
#	182124
#	205236
#
# Disc length: 3457 seconds
#
# Revision: 1
# Processed by: cddbd v1.5PL3 Copyright (c) Steve Scherf et al.
# Submitted via: EasyCDDAExtractor 5.1.0
#
DISCID=920d7f0a
DTITLE=Ballati Mule - Music of Italia
DYEAR=1900
DGENRE=Ballad
TTITLE0=Pinguli pinguli
TTITLE1=Quddhu ca provu pe tie
TTITLE2=Panarini de Cesare
TTITLE3=La notte di Natale
TTITLE4=Pizzica pizzica
TTITLE5=La Porticella
TTITLE6=Mi scolgo i capelli
TTITLE7=De 'na storia sfortunata
TTITLE8=Lu auceddhu
TTITLE9=Ballati mule
EXTD=
EXTT0=
EXTT1=
EXTT2=
EXTT3=
EXTT4=
EXTT5=
EXTT6=
EXTT7=
EXTT8=
EXTT9=
PLAYORDER=
